<svg fill="none" height="44" viewBox="0 0 157 44" width="157" xmlns="http://www.w3.org/2000/svg"><g fill="#fff"><g clip-rule="evenodd" fill-rule="evenodd"><path d="m9.77631 0c-5.34591 0-9.6796303 4.32006-9.6796303 9.64912v24.70178c0 5.329 4.3337203 9.6491 9.6796303 9.6491h24.77979c5.346 0 9.6797-4.3201 9.6797-9.6491v-24.70178c0-5.32906-4.3337-9.64912-9.6797-9.64912zm20.84719 21.9448c1.3859-.3647 2.6191-1.4145 2.6191-3.5252 0-3.5141-2.9465-4.3318-6.7223-4.3318h-15.0377v15.8245h6.3294v-5.3706h7.5079c1.1568 0 1.8334.4641 1.8334 1.6134v3.7572h6.3293v-3.9561c0-2.1549-1.2004-3.5141-2.8591-4.0114zm-4.2521-3.4358h-8.5566v2.1576h8.5566v-.0007c.0128.0004.0256.0007.0385.0007.5883 0 1.0653-.483 1.0653-1.0788s-.477-1.0788-1.0653-1.0788c-.0129 0-.0257.0002-.0385.0007z"/><path d="m131.911 25.563c0 4.6167-2.676 7.7945-7.216 7.7945-1.864 0-3.578-.7794-4.33-1.9786v1.7388h-3.788v-21.2253h3.788v7.7946c.872-1.1392 2.496-1.9186 4.39-1.9186 4.48 0 7.156 3.1778 7.156 7.7946zm-11.786 0c0 2.7281 1.593 4.5268 4.029 4.5268 2.405 0 3.999-1.7987 3.999-4.5268 0-2.7282-1.594-4.5269-3.999-4.5269-2.436 0-4.029 1.7987-4.029 4.5269z"/><path d="m77.8919 33.1177-4.6276-9.3835c2.0747-1.0193 3.3074-3.0279 3.3074-5.3962 0-3.7774-2.676-6.2057-6.7952-6.2057h-10.048l.0301 20.9854h4.0891v-8.604h5.2373l4.0563 8.604zm-14.0442-17.4779h5.2974c2.1047 0 3.3074 1.0193 3.3074 2.6982 0 1.6788-1.2027 2.6681-3.3074 2.6681h-5.2974z"/><path d="m90.3349 18.0082h3.7885v15.1095h-3.7885v-1.7388c-.7517 1.1992-2.4355 1.9786-4.3297 1.9786-4.5402 0-7.2161-3.1778-7.2161-7.7945 0-4.6168 2.6759-7.7946 7.156-7.7946 1.8942 0 3.5178.7794 4.3898 1.9186zm-7.7874 7.5548c0 2.7281 1.5935 4.5268 3.9989 4.5268 2.4355 0 4.029-1.7987 4.029-4.5268 0-2.7282-1.5935-4.5269-4.029-4.5269-2.4054 0-3.9989 1.7987-3.9989 4.5269z"/></g><path d="m107.517 18.0082-.24 3.6575c-.541-.2399-1.263-.3598-1.924-.3598-2.135 0-4.06 1.7688-4.06 6.2657v5.5461h-3.788v-15.1095h3.788v2.7581c.752-1.7088 2.737-2.9979 4.571-2.9979.541 0 1.202.0899 1.653.2398z"/><path d="m113.208 33.1177h-3.789v-15.1095h3.789z"/><path d="m134.481 33.1177h3.788v-21.2253h-3.788z"/><path clip-rule="evenodd" d="m155.92 25.0533c0-3.5076-2.495-7.2849-7.607-7.2849-5.021 0-7.487 3.8673-7.487 7.7946 0 3.9272 2.676 7.7945 7.698 7.7945 3.548 0 6.193-1.6788 7.035-4.5268l-3.548-.9594c-.39 1.469-1.653 2.3084-3.427 2.3084-2.165 0-3.638-1.349-3.969-3.6274h11.245c.03-.2998.06-.9594.06-1.499zm-11.215-1.2591c.421-2.0386 1.744-3.1478 3.608-3.1478 2.195 0 3.368 1.349 3.548 3.1478z" fill-rule="evenodd"/><path d="m108.97 12.6713c0-.9592.778-1.7369 1.737-1.7369h1.243c.959 0 1.737.7777 1.737 1.7369v1.2427c0 .9592-.778 1.7368-1.737 1.7368h-1.243c-.959 0-1.737-.7776-1.737-1.7368z"/></g></svg>